<?xml version="1.0"?>
<svg xmlns="http://www.w3.org/2000/svg" height="512px" viewBox="-60 0 461 461.62" width="512px" class=""><g><path d="m287.539062 347.910156v61.710938h-31.878906l-57.871094-58.542969c-.109374-.109375-.21875-.207031-.328124-.316406-15.707032-15.535157-41.03125-15.390625-56.5625.316406l-57.878907 58.542969h-29.679687v-61.710938c-.140625-64.53125 52.058594-116.957031 116.589844-117.101562h1.019531c64.332031.144531 116.449219 52.257812 116.589843 116.589844zm0 0" fill="#fedb41" data-original="#FEDB41" class="" style="fill:#00EFD1" data-old_color="#D1B432"/><path d="m255.660156 409.621094h-172.640625l57.878907-58.542969c15.53125-15.707031 40.855468-15.851563 56.5625-.316406.109374.109375.21875.207031.328124.316406zm0 0" fill="#00efd1" data-original="#00EFD1" class="" style="fill:#D1B432" data-old_color="#00EFD1"/><path d="m330.570312 20h-320.261718c-5.519532 0-10-4.476562-10-10s4.480468-10 10-10h320.261718c5.523438 0 10 4.476562 10 10s-4.476562 10-10 10zm0 0" fill="#f4b844" data-original="#F4B844" class="active-path" style="fill:#D1B432" data-old_color="#00EFD1"/><path d="m330.570312 461.621094h-320.261718c-5.519532 0-10-4.476563-10-10 0-5.523438 4.480468-10 10-10h320.261718c5.523438 0 10 4.476562 10 10 0 5.523437-4.476562 10-10 10zm0 0" fill="#f4b844" data-original="#F4B844" class="active-path" style="fill:#D1B432" data-old_color="#00EFD1"/><path d="m170.441406 230.808594h.507813c64.53125-.136719 116.492187-52.570313 116.492187-117.097656v-61.902344h-234v62.410156c.042969 64.335938 52.15625 116.492188 116.488282 116.589844zm0 0" fill="#00acea" data-original="#00ACEA" class="" style="fill:#00EFD1" data-old_color="#D1B432"/></g> </svg>
