<?xml version="1.0"?>
<svg xmlns="http://www.w3.org/2000/svg" height="512px" viewBox="-61 0 475 475.99" width="512px" class=""><g><path d="m353.855469 103.269531v336.570313c0 19.96875-16.980469 36.148437-37.941407 36.148437h-277.480468c-20.957032 0-37.9375-16.179687-37.9375-36.148437v-336.570313c0-19.960937 16.980468-36.140625 37.9375-36.140625h53.113281v33.5625h170.71875v-33.5625h53.648437c20.960938 0 37.941407 16.179688 37.941407 36.140625zm-107.679688 146.71875v-40h-49v-49h-40v49h-49v40h49v49h40v-49zm0 0" fill="#00efd1" data-original="#00EFD1" class=""/><path d="m246.175781 209.988281v40h-49v49h-40v-49h-49v-40h49v-49h40v49zm0 0" fill="#fedb41" data-original="#FEDB41" class="" style="fill:#D1B432" data-old_color="#d1b432"/><path d="m250.914062 365.988281h-147.480468c-5.519532 0-10-4.476562-10-10 0-5.519531 4.480468-10 10-10h147.480468c5.523438 0 10 4.480469 10 10 0 5.523438-4.476562 10-10 10zm0 0" fill="#f4b844" data-original="#F4B844" class="" style="fill:#D1B432" data-old_color="#d1b432"/><path d="m280.914062 405.988281h-207.480468c-5.519532 0-10-4.476562-10-10 0-5.519531 4.480468-10 10-10h207.480468c5.523438 0 10 4.480469 10 10 0 5.523438-4.476562 10-10 10zm0 0" fill="#f4b844" data-original="#F4B844" class="" style="fill:#D1B432" data-old_color="#d1b432"/><path d="m262.175781 67.128906v-36.140625h-45.441406c-3.789063-18-20.050781-30.988281-40.097656-30.988281-18.847657.0546875-35.300781 12.769531-40.113281 30.988281h-45.347657v70h171zm0 0" fill="#00acea" data-original="#00ACEA" class="active-path" style="fill:#D1B432" data-old_color="#d1b432"/></g> </svg>
