<?xml version="1.0"?>
<svg xmlns="http://www.w3.org/2000/svg" height="512px" viewBox="-1 0 404 404.2" width="512px" class=""><g><path d="m402.921875 0v301.929688l-1.101563 1.140624-1.179687-1.140624h-96.332031v100l1.132812 1.089843-1.132812 1.179688h-304.207032v-404.199219zm-132.410156 162.101562v-40h-49v-49h-40v49h-49v40h49v49h40v-49zm0 0" fill="#00efd1" data-original="#00EFD1" class=""/><path d="m270.511719 122.101562v40h-49v49h-40v-49h-49v-40h49v-49h40v49zm0 0" fill="#fedb41" data-original="#FEDB41" class="" style="fill:#D1B432" data-old_color="#F9BA48"/><path d="m325.941406 285.769531h-255.863281c-5.519531 0-10-4.476562-10-10 0-5.523437 4.480469-10 10-10h255.863281c5.519532 0 10 4.476563 10 10 0 5.523438-4.480468 10-10 10zm0 0" fill="#fedb41" data-original="#FEDB41" class="" style="fill:#D1B432" data-old_color="#F9BA48"/><path d="m304.511719 302.101562v99.828126l1.027343 1.089843 96.332032-99.863281-1.230469-1.054688zm0 0" fill="#00acea" data-original="#00ACEA" class="active-path" style="fill:#D1B432" data-old_color="#00ACEA"/></g> </svg>
