<svg width="512" height="512" viewBox="0 0 512 512" fill="none" xmlns="http://www.w3.org/2000/svg">
<rect x="53" y="93" width="398" height="339" fill="white"/>
<path d="M448 0H64C28.6561 0 0 28.6561 0 64V448C0 483.344 28.6561 512 64 512H448C483.344 512 512 483.344 512 448V64C512 28.6561 483.344 0 448 0ZM352 272H182.624L248.56 337.936C254.816 344.192 254.816 354.32 248.56 360.559C242.304 366.799 232.176 366.816 225.936 360.559L135.424 270.048C131.6 266.224 130.4 260.96 131.279 256C130.399 251.04 131.6 245.776 135.44 241.936L225.952 151.424C232.208 145.168 242.336 145.168 248.576 151.424C254.832 157.68 254.832 167.808 248.576 174.048L182.624 240H352C360.832 240 368 247.168 368 256C368 264.832 360.832 272 352 272Z" fill="#9232B3"/>
</svg>
